<?xml version="1.0" encoding="iso-8859-1"?>
<!-- Generator: Adobe Illustrator 19.0.0, SVG Export Plug-In . SVG Version: 6.00 Build 0)  -->
<svg version="1.1" id="Layer_1" xmlns="http://www.w3.org/2000/svg" xmlns:xlink="http://www.w3.org/1999/xlink" x="0px" y="0px"
	 viewBox="0 0 511.99 511.99" style="enable-background:new 0 0 511.99 511.99;" xml:space="preserve">
<path style="fill:#434A54;" d="M217.875,66.304c2.672,5.25,0.609,11.671-4.64,14.359l-56.967,29.171
	c-5.234,2.688-11.671,0.609-14.359-4.641l-20.046-39.155c-2.688-5.25-0.609-11.671,4.641-14.358l56.951-29.171
	c5.25-2.672,11.672-0.609,14.359,4.64L217.875,66.304z"/>
<path style="fill:#E6E9ED;" d="M128.004,100.334c0,5.89-4.766,10.671-10.656,10.671s-10.671-4.781-10.671-10.671
	c0-5.891,4.781-10.656,10.671-10.656C123.238,89.679,128.004,94.444,128.004,100.334z"/>
<path d="M405.338,224.002c0,5.89-4.781,10.67-10.672,10.67s-10.672-4.781-10.672-10.67c0-5.891,4.781-10.672,10.672-10.672
	S405.338,218.111,405.338,224.002z"/>
<path style="fill:#AC92EB;" d="M469.335,21.337C49.976-20.88,21.352,277.327,21.352,277.327h413.077
	c28.422-49.326,77.561-42.655,77.561-42.655L469.335,21.337z M410.666,159.957l-202.493,0.047
	c15.671-31.452,42.842-54.811,80.935-69.544c38.373-14.844,80.152-17.969,108.434-17.969c13.125,0,23.796,0.672,30.513,1.25
	l8.656,51.514L410.666,159.957z"/>
<path style="fill:#E6E9ED;" d="M31.289,234.672c-8.297,25.499-9.938,42.655-9.938,42.655h413.078
	c19.359-33.592,48.327-41.217,64.826-42.655H31.289z"/>
<g>
	<path style="fill:#434A54;" d="M351.995,138.614h-63.997l0,0c-5.891,0.016-10.655,4.781-10.655,10.672s4.765,10.671,10.655,10.671
		l0,0h63.997c5.891,0,10.671-4.781,10.671-10.671S357.886,138.614,351.995,138.614z"/>
	<path style="fill:#434A54;" d="M469.319,181.331c0,5.891-4.781,10.671-10.672,10.671s-10.656-4.781-10.656-10.671
		s4.766-10.671,10.656-10.671S469.319,175.44,469.319,181.331z"/>
</g>
<g>
	<path style="fill:#CCD1D9;" d="M405.338,266.671c-5.891,0-10.672,4.766-10.672,10.656h21.327
		C415.993,271.436,411.228,266.671,405.338,266.671z"/>
	<path style="fill:#CCD1D9;" d="M362.666,266.671c-5.89,0-10.671,4.766-10.671,10.656h21.343
		C373.338,271.436,368.557,266.671,362.666,266.671z"/>
	<path style="fill:#CCD1D9;" d="M319.996,266.671c-5.891,0-10.655,4.766-10.655,10.656h21.327
		C330.668,271.436,325.887,266.671,319.996,266.671z"/>
	<path style="fill:#CCD1D9;" d="M277.343,266.671c-5.891,0-10.672,4.766-10.672,10.656h21.327
		C287.998,271.436,283.232,266.671,277.343,266.671z"/>
	<path style="fill:#CCD1D9;" d="M234.671,266.671c-5.89,0-10.671,4.766-10.671,10.656h21.343
		C245.343,271.436,240.562,266.671,234.671,266.671z"/>
	<path style="fill:#CCD1D9;" d="M192.001,266.671c-5.891,0-10.656,4.766-10.656,10.656h21.328
		C202.673,271.436,197.892,266.671,192.001,266.671z"/>
	<path style="fill:#CCD1D9;" d="M149.347,266.671c-5.89,0-10.671,4.766-10.671,10.656h21.328
		C160.003,271.436,155.237,266.671,149.347,266.671z"/>
	<path style="fill:#CCD1D9;" d="M106.677,266.671c-5.891,0-10.671,4.766-10.671,10.656h21.342
		C117.348,271.436,112.567,266.671,106.677,266.671z"/>
	<path style="fill:#CCD1D9;" d="M64.006,266.671c-5.89,0-10.656,4.766-10.656,10.656h21.327
		C74.678,271.436,69.896,266.671,64.006,266.671z"/>
	<path style="fill:#CCD1D9;" d="M426.665,309.326H21.352c-5.89,0-10.671-4.766-10.671-10.656s4.781-10.671,10.671-10.671h405.313
		c5.889,0,10.67,4.781,10.67,10.671C437.335,304.56,432.554,309.326,426.665,309.326z"/>
</g>
<path style="fill:#5D9CEC;" d="M501.333,319.997H10.68c-5.891,0-10.671,4.78-10.671,10.671v149.323
	c0,4.594,2.938,8.672,7.296,10.125l31.999,10.655c2.688,0.891,5.609,0.688,8.141-0.578l16.562-8.281l16.562,8.281
	c3,1.5,6.546,1.5,9.546,0l16.562-8.281l16.562,8.281c3,1.5,6.531,1.5,9.546,0l16.562-8.281l16.562,8.281c3,1.5,6.531,1.5,9.531,0
	l16.562-8.281l16.562,8.281c3,1.5,6.546,1.5,9.546,0l16.562-8.281l16.562,8.281c3,1.5,6.531,1.5,9.547,0l16.562-8.281l16.562,8.281
	c2.999,1.5,6.53,1.5,9.53,0l16.562-8.281l16.562,8.281c1.5,0.75,3.141,1.125,4.781,1.125c1.625,0,3.266-0.375,4.765-1.125
	l16.562-8.281l16.562,8.281c3,1.5,6.531,1.5,9.547,0l16.562-8.281l16.562,8.281c3,1.5,6.529,1.5,9.529,0l16.562-8.281l16.562,8.281
	c2.531,1.266,5.469,1.469,8.141,0.578l31.998-10.655c4.359-1.453,7.297-5.531,7.297-10.125V330.668
	C511.989,324.777,507.224,319.997,501.333,319.997z"/>
<path style="fill:#E6E9ED;" d="M42.664,138.676c-2.203,0-4.438-0.688-6.359-2.125c-4.718-3.515-5.703-10.187-2.188-14.921
	c0.031-0.031,4.75-6.562,6.938-15.062c2.531-9.875,0.594-17.843-5.922-24.358C22.977,70.054,19.07,54.305,23.852,36.68
	c3.281-12.093,9.562-20.765,10.265-21.702c3.516-4.734,10.203-5.719,14.938-2.188c4.703,3.5,5.687,10.172,2.203,14.89
	c-0.156,0.203-4.796,6.688-6.953,15.093c-2.547,9.875-0.609,17.843,5.921,24.358c12.156,12.156,16.062,27.905,11.281,45.53
	c-3.281,12.093-9.562,20.765-10.281,21.717C49.132,137.192,45.929,138.676,42.664,138.676z"/>
<rect y="426.665" style="fill:#4A89DC;" width="511.98" height="21.327"/>
<g>
</g>
<g>
</g>
<g>
</g>
<g>
</g>
<g>
</g>
<g>
</g>
<g>
</g>
<g>
</g>
<g>
</g>
<g>
</g>
<g>
</g>
<g>
</g>
<g>
</g>
<g>
</g>
<g>
</g>
</svg>
