<?xml version="1.0" encoding="iso-8859-1"?>
<!-- Generator: Adobe Illustrator 18.0.0, SVG Export Plug-In . SVG Version: 6.00 Build 0)  -->
<!DOCTYPE svg PUBLIC "-//W3C//DTD SVG 1.1//EN" "http://www.w3.org/Graphics/SVG/1.1/DTD/svg11.dtd">
<svg version="1.1" id="Capa_1" xmlns="http://www.w3.org/2000/svg" xmlns:xlink="http://www.w3.org/1999/xlink" x="0px" y="0px"
	 viewBox="0 0 254.232 254.232" style="enable-background:new 0 0 254.232 254.232;" xml:space="preserve">
<g>
	<path style="fill:#F5FCD0;" d="M236.549,216.592v-40.937c0-26.142-2.678-51.362-2.678-77.563c0-14.327,1.604-28.387,1.604-42.562
		c0.004-10.761,2.57-23.588-8.318-29.228c-4.531-2.349-10.17-1.623-15.748-1.625c-6.463,0-10.512-1.877-15.543-5.883
		c-3.359-2.674-7.273-6.277-10.553-9.63c-1.301-1.332-2.656-3.993-4.266-4.851c-2.592-1.375-7.586-0.881-10.83-1.033
		c-30.867-1.451-62.164,0-93.076,0H66.445L49.326,26.82c-6.418,0-12.84-0.061-19.258,0c-7.699,0.074-9.582,2.855-10.174,10.309
		c-1.307,16.357-2.814,31.853-2.664,48.564c0.072,7.979,1.707,15.615,2.557,23.436c0.863,7.895,0.654,16.045,0.654,24.125
		c0,18.922-2.676,37.186-2.676,56.18c0,11.782,0.049,23.607-0.535,35.274c-0.484,9.697,0.438,20.443,11.221,23.162
		c11.715,2.955,28.07,0.902,40.186,0.938c18.303,0.048,36.617-2.139,55.139-2.139c16.17,0,32.109-0.352,48.1,1.633
		c10.988,1.367,22.623,2.457,33.748,1.456c5.992-0.537,13.314-0.616,19.051-2.008C237.693,244.604,236.549,227.451,236.549,216.592"
		/>
	<g>
		<path style="fill:#F06060;" d="M107.701,2.966c-2.001,0.031-4.001,0.062-6,0.092v244.377c1.998-0.113,3.998-0.215,6-0.313V2.966z"
			/>
		<path style="fill:#F06060;" d="M40.459,26.8c-2-0.006-4,0.006-6,0.01v222.119c1.941,0.227,3.945,0.379,6,0.458V26.8z"/>
		<path style="fill:#F06060;" d="M130.115,246.657V2.675c-2,0.016-4,0.035-6,0.058v243.935
			C126.118,246.668,128.118,246.663,130.115,246.657z"/>
		<path style="fill:#F06060;" d="M62.873,8.193l-6,8.25v232.703c2.046-0.086,4.052-0.169,6-0.233V8.193z"/>
		<path style="fill:#F06060;" d="M85.287,3.248c-2.001,0.014-4.002,0.023-6,0.027V248.6c1.999-0.071,3.999-0.152,6-0.251V3.248z"/>
		<path style="fill:#F06060;" d="M197.357,250.141V19.928c-0.491-0.361-0.984-0.729-1.492-1.133
			c-1.433-1.14-2.966-2.454-4.508-3.841V250.03C193.36,250.107,195.362,250.155,197.357,250.141z"/>
		<path style="fill:#F06060;" d="M219.772,24.616c-1.948-0.088-3.967-0.018-6,0.029v224.535c2.021-0.143,4.046-0.315,6-0.565V24.616
			z"/>
		<path style="fill:#F06060;" d="M174.943,248.669V3.322c-1.68-0.022-3.358,0.024-4.726-0.041c-0.424-0.019-0.85-0.034-1.274-0.053
			v244.76c0.978,0.105,1.954,0.192,2.932,0.314C172.891,248.428,173.917,248.549,174.943,248.669z"/>
		<path style="fill:#F06060;" d="M152.529,2.739c-1.999-0.033-3.999-0.057-6-0.072v244.056c2.001,0.033,4.001,0.084,6,0.151V2.739z"
			/>
	</g>
	<g>
		<path style="fill:#00A99D;" d="M20.206,143.526h215.345c-0.135-2.667-0.274-5.334-0.412-8H20.422
			C20.393,138.203,20.319,140.869,20.206,143.526z"/>
		<path style="fill:#00A99D;" d="M19.924,47.501h215.775c0.075-2.721,0.069-5.431-0.238-8H19.924V47.501z"/>
		<rect x="19.924" y="183.539" style="fill:#00A99D;" width="216.625" height="8"/>
		<path style="fill:#00A99D;" d="M234.117,87.514H19.924v8h213.98C233.938,92.84,234.006,90.173,234.117,87.514z"/>
		<path style="fill:#00A99D;" d="M236.093,231.552H19.924v8h214.147C235.117,237.137,235.734,234.394,236.093,231.552z"/>
	</g>
	<path style="fill:#F5FCD0;" d="M93.77,37.728c0,0,57.603-2.551,67.812,1.459l-34.465,46.666L93.77,37.728z"/>
	<path style="fill:#05293D;" d="M223.168,22.136H205.84L186.555,0H67.768L47.059,22.136H31.063c-9.449,0-17.141,7.69-17.141,17.142
		v197.816c0,9.448,7.691,17.139,17.141,17.139h192.105c9.451,0,17.143-7.691,17.143-17.139V39.277
		C240.311,29.826,232.619,22.136,223.168,22.136 M231.738,39.277v29.981c-4.875-5.235-11.834-9.053-20.687-11.241
		c-5.662-1.396-11.012-1.878-14.887-2.016l10.574-25.295h16.43C227.895,30.707,231.738,34.553,231.738,39.277 M165.451,107.257
		l-33.172-20.55l52.701-75.473l13.924,15.994L165.451,107.257z M120.123,244.893L117.01,99.122l9.783-5.478l0.324,0.46l0.248-0.357
		l17.648,10.93v140.218H120.123z M157.977,34.933c-20.861-0.573-50.853,0.78-60.83,1.28L77.844,8.566h98.543L157.977,34.933z
		 M154.293,40.213l-27.176,38.924l-26.352-37.738C112.188,40.863,135.953,39.903,154.293,40.213 M69.141,11.074l52.723,75.509
		l-37.162,20.806L53.883,27.387L69.141,11.074z M31.063,30.707h14.914l9.762,25.34c-17.461-0.122-27.562,4.525-33.244,9.076V39.277
		C22.494,34.553,26.338,30.707,31.063,30.707 M22.494,237.094V72.633c1.113-1.396,2.842-3.145,5.438-4.831
		c4.969-3.225,14.113-6.825,29.879-6.374l22.451,58.27l31.455-17.61l3.066,143.577H97.121v-38.207H29.99v38.132
		C25.772,245.059,22.494,241.453,22.494,237.094 M90.697,224.708H36.42v-10.825h54.277V224.708z M36.42,228.996h54.277v16.669H36.42
		V228.996z M217.525,224.708h-54.273v-10.825h54.273V224.708z M163.252,228.996h54.273v16.669h-54.273V228.996z M223.955,245.626
		v-38.168h-67.131v38.207h-6.457V107.996l19.115,11.836l24.463-58.516c8.371,0.074,30.039,1.814,37.793,17.196v158.581
		C231.738,241.555,228.314,245.225,223.955,245.626"/>
	<path style="fill:#05293D;" d="M130.986,110.185c-3.293,0-5.965,2.676-5.965,5.968s2.672,5.964,5.965,5.964
		c3.293,0,5.961-2.672,5.961-5.964S134.279,110.185,130.986,110.185"/>
	<path style="fill:#05293D;" d="M130.986,166.248c-3.293,0-5.965,2.672-5.965,5.961c0,3.293,2.672,5.964,5.965,5.964
		c3.293,0,5.961-2.671,5.961-5.964C136.947,168.92,134.279,166.248,130.986,166.248"/>
	<path style="fill:#05293D;" d="M130.986,222.306c-3.293,0-5.965,2.671-5.965,5.963c0,3.295,2.672,5.965,5.965,5.965
		c3.293,0,5.961-2.67,5.961-5.965C136.947,224.976,134.279,222.306,130.986,222.306"/>
</g>
<g>
</g>
<g>
</g>
<g>
</g>
<g>
</g>
<g>
</g>
<g>
</g>
<g>
</g>
<g>
</g>
<g>
</g>
<g>
</g>
<g>
</g>
<g>
</g>
<g>
</g>
<g>
</g>
<g>
</g>
</svg>
