<?xml version="1.0" encoding="iso-8859-1"?>
<!-- Generator: Adobe Illustrator 19.0.0, SVG Export Plug-In . SVG Version: 6.00 Build 0)  -->
<svg version="1.1" id="Layer_1" xmlns="http://www.w3.org/2000/svg" xmlns:xlink="http://www.w3.org/1999/xlink" x="0px" y="0px"
	 viewBox="0 0 512 512" style="enable-background:new 0 0 512 512;" xml:space="preserve">
<path style="fill:#A7E5CB;" d="M512,244.87v44.522c0,12.295-9.966,22.261-22.261,22.261h-11.13l-33.391,180.545
	C443.965,503.471,434.435,512,423.092,512H88.908c-11.343,0-20.872-8.529-22.125-19.803L33.391,311.652h-11.13
	C9.966,311.652,0,301.686,0,289.391V244.87c0-12.295,9.966-22.261,22.261-22.261h11.13l0,0c0-49.178,39.866-89.043,89.043-89.043
	h102.402c10.313-50.805,55.228-89.043,109.076-89.043h33.391c61.472,0,111.304,49.832,111.304,111.304v66.783h11.13
	C502.034,222.609,512,232.575,512,244.87z"/>
<path style="fill:#64AF8F;" d="M512,244.87v44.522c0,12.295-9.966,22.261-22.261,22.261h-11.13l-4.117,22.261H37.508l-4.117-22.261
	h-11.13C9.966,311.652,0,301.686,0,289.391V244.87c0-12.295,9.966-22.261,22.261-22.261h467.478
	C502.034,222.609,512,232.575,512,244.87z"/>
<path style="fill:#84D88B;" d="M300.522,178.087H178.087c-43.03,0-77.913-34.883-77.913-77.913l0,0
	C100.174,44.849,145.023,0,200.348,0h77.913c49.178,0,89.043,39.866,89.043,89.043v22.261
	C367.304,148.187,337.405,178.087,300.522,178.087z"/>
<path style="fill:#93D6BB;" d="M512,244.87v44.522c0,12.295-9.966,22.261-22.261,22.261H22.261C9.966,311.652,0,301.686,0,289.391
	V244.87c0-12.295,9.966-22.261,22.261-22.261h467.478C502.034,222.609,512,232.575,512,244.87z"/>
<path style="fill:#FF9CAB;" d="M333.913,44.522h33.391c61.471,0,111.304,49.833,111.304,111.304v66.783h-256v-66.783
	C222.609,94.355,272.442,44.522,333.913,44.522z"/>
<path style="fill:#FFE77C;" d="M411.826,222.609L411.826,222.609c0,24.589-19.934,44.522-44.522,44.522H267.13
	c-19.394,0-35.891-12.4-41.996-29.704c-3.135-8.887-11.548-14.818-20.971-14.818H33.391l0,0c0-49.178,39.866-89.043,89.043-89.043
	h200.348C371.96,133.565,411.826,173.431,411.826,222.609z"/>
<path style="fill:#64AF8F;" d="M420.174,411.826c0,4.61-3.738,8.348-8.348,8.348h-53.848l-4.651,37.209
	c-0.528,4.223-4.124,7.314-8.273,7.314c-0.345,0-0.695-0.022-1.045-0.066c-4.575-0.572-7.82-4.744-7.248-9.318l4.392-35.139h-76.804
	v36.174c0,4.61-3.738,8.348-8.348,8.348s-8.348-3.738-8.348-8.348v-36.174h-76.804l4.392,35.139
	c0.572,4.575-2.672,8.746-7.248,9.318c-0.351,0.045-0.7,0.066-1.045,0.066c-4.149,0-7.745-3.09-8.273-7.314l-4.651-37.209h-53.848
	c-4.61,0-8.348-3.738-8.348-8.348c0-4.61,3.738-8.348,8.348-8.348h51.761l-4.392-35.139c-0.572-4.575,2.672-8.746,7.248-9.318
	c4.568-0.578,8.746,2.674,9.318,7.248l4.651,37.209h78.891v-36.174c0-4.61,3.738-8.348,8.348-8.348s8.348,3.738,8.348,8.348v36.174
	h78.891l4.651-37.209c0.572-4.575,4.742-7.821,9.318-7.248c4.575,0.572,7.82,4.744,7.248,9.318l-4.392,35.139h51.761
	C416.436,403.478,420.174,407.216,420.174,411.826z"/>
<g>
</g>
<g>
</g>
<g>
</g>
<g>
</g>
<g>
</g>
<g>
</g>
<g>
</g>
<g>
</g>
<g>
</g>
<g>
</g>
<g>
</g>
<g>
</g>
<g>
</g>
<g>
</g>
<g>
</g>
</svg>
